name Walk9.mot
datacolumns 19
datarows 17
range 1.57200000 1.58800000
endheader

                time	   L_ground_force_vx	   L_ground_force_vy	   L_ground_force_vz	   L_ground_force_px	   L_ground_force_py	   L_ground_force_pz	   R_ground_force_vx	   R_ground_force_vy	   R_ground_force_vz	   R_ground_force_px	   R_ground_force_py	   R_ground_force_pz	   L_ground_torque_x	   L_ground_torque_y	   L_ground_torque_z	   R_ground_torque_x	   R_ground_torque_y	   R_ground_torque_z	
          1.57200000	         19.34877210	        636.38364833	         36.33776438	         -0.20277559	          0.00000000	         -0.05743277	         -0.01376659	          0.15647223	         -0.00336697	          0.00017074	          0.00000000	          0.00005066	          0.00000000	         -1.36774360	          0.00000000	          0.00000000	         -0.00012167	          0.00000000	
          1.57300000	         19.70511072	        637.10717213	         36.50026796	         -0.20228539	          0.00000000	         -0.05749738	         -0.01562930	          0.16959961	         -0.00353794	          0.00018113	          0.00000000	          0.00005369	          0.00000000	         -1.37337576	          0.00000000	          0.00000000	         -0.00013109	          0.00000000	
          1.57400000	         20.06208479	        637.84225333	         36.66546979	         -0.20179515	          0.00000000	         -0.05756222	         -0.01760056	          0.18324641	         -0.00371019	          0.00019175	          0.00000000	          0.00005678	          0.00000000	         -1.37865933	          0.00000000	          0.00000000	         -0.00014085	          0.00000000	
          1.57500000	         20.42005417	        638.59039550	         36.83323597	         -0.20130510	          0.00000000	         -0.05762726	         -0.01968231	          0.19740455	         -0.00388312	          0.00020256	          0.00000000	          0.00005993	          0.00000000	         -1.38358384	          0.00000000	          0.00000000	         -0.00015092	          0.00000000	
          1.57600000	         20.77939134	        639.35309357	         37.00343266	         -0.20081548	          0.00000000	         -0.05769246	         -0.02187622	          0.21206308	         -0.00405609	          0.00021354	          0.00000000	          0.00006312	          0.00000000	         -1.38813819	          0.00000000	          0.00000000	         -0.00016131	          0.00000000	
          1.57700000	         21.14048015	        640.13182816	         37.17592677	         -0.20032654	          0.00000000	         -0.05775780	         -0.02418366	          0.22720795	         -0.00422838	          0.00022466	          0.00000000	          0.00006635	          0.00000000	         -1.39231086	          0.00000000	          0.00000000	         -0.00017200	          0.00000000	
          1.57800000	         21.50371468	        640.92805974	         37.35058659	         -0.19983852	          0.00000000	         -0.05782324	         -0.02660563	          0.24282181	         -0.00439921	          0.00023588	          0.00000000	          0.00006960	          0.00000000	         -1.39609010	          0.00000000	          0.00000000	         -0.00018297	          0.00000000	
          1.57900000	         21.86949803	        641.74322298	         37.52728228	         -0.19935167	          0.00000000	         -0.05788873	         -0.02914279	          0.25888375	         -0.00456775	          0.00024717	          0.00000000	          0.00007287	          0.00000000	         -1.39946397	          0.00000000	          0.00000000	         -0.00019421	          0.00000000	
          1.58000000	         22.23824114	        642.57872160	         37.70588641	         -0.19886625	          0.00000000	         -0.05795425	         -0.03179536	          0.27536909	         -0.00473309	          0.00025849	          0.00000000	          0.00007614	          0.00000000	         -1.40242033	          0.00000000	          0.00000000	         -0.00020569	          0.00000000	
          1.58100000	         22.61036156	        643.43592346	         37.88627453	         -0.19838251	          0.00000000	         -0.05801974	         -0.03456311	          0.29224908	         -0.00489424	          0.00026980	          0.00000000	          0.00007940	          0.00000000	         -1.40494673	          0.00000000	          0.00000000	         -0.00021738	          0.00000000	
          1.58200000	         22.98628223	        644.31615564	         38.06832565	         -0.19790069	          0.00000000	         -0.05808516	         -0.03744530	          0.30949067	         -0.00505016	          0.00028104	          0.00000000	          0.00008264	          0.00000000	         -1.40703038	          0.00000000	          0.00000000	         -0.00022927	          0.00000000	
          1.58300000	         23.36643035	        645.22069942	         38.25192283	         -0.19742105	          0.00000000	         -0.05815044	         -0.04044068	          0.32705628	         -0.00519971	          0.00029217	          0.00000000	          0.00008583	          0.00000000	         -1.40865799	          0.00000000	          0.00000000	         -0.00024131	          0.00000000	
          1.58400000	         23.75123613	        646.15078503	         38.43695361	         -0.19694384	          0.00000000	         -0.05821553	         -0.04354739	          0.34490345	         -0.00534168	          0.00030312	          0.00000000	          0.00008897	          0.00000000	         -1.40981580	          0.00000000	          0.00000000	         -0.00025347	          0.00000000	
          1.58500000	         24.14113147	        647.10758633	         38.62331038	         -0.19646930	          0.00000000	         -0.05828035	         -0.04676294	          0.36298466	         -0.00547478	          0.00031384	          0.00000000	          0.00009203	          0.00000000	         -1.41048954	          0.00000000	          0.00000000	         -0.00026572	          0.00000000	
          1.58600000	         24.53654821	        648.09221548	         38.81089053	         -0.19599768	          0.00000000	         -0.05834485	         -0.05008417	          0.38124697	         -0.00559764	          0.00032425	          0.00000000	          0.00009500	          0.00000000	         -1.41066460	          0.00000000	          0.00000000	         -0.00027801	          0.00000000	
          1.58700000	         24.93791623	        649.10571771	         38.99959651	         -0.19552920	          0.00000000	         -0.05840895	         -0.05350718	          0.39963179	         -0.00570880	          0.00033430	          0.00000000	          0.00009785	          0.00000000	         -1.41032629	          0.00000000	          0.00000000	         -0.00029029	          0.00000000	
          1.58800000	         25.34566145	        650.14906646	         39.18933569	         -0.19506410	          0.00000000	         -0.05847258	         -0.05702730	          0.41807458	         -0.00580672	          0.00034390	          0.00000000	          0.00010056	          0.00000000	         -1.40946012	          0.00000000	          0.00000000	         -0.00030251	          0.00000000	
